<mxfile host="app.diagrams.net" agent="Mozilla/5.0 (Windows NT 10.0; Win64; x64) AppleWebKit/537.36 (KHTML, like Gecko) Chrome/133.0.0.0 Safari/537.36" version="26.0.13">
  <diagram name="Page-1" id="2YBvvXClWsGukQMizWep">
    <mxGraphModel dx="1303" dy="778" grid="1" gridSize="10" guides="1" tooltips="1" connect="1" arrows="1" fold="1" page="1" pageScale="1" pageWidth="850" pageHeight="1100" math="0" shadow="0">
      <root>
        <mxCell id="0" />
        <mxCell id="1" parent="0" />
        <mxCell id="F06PIi5OJ8OJ5BxMcxlW-1" value="Listar marcas" style="shape=umlFrame;whiteSpace=wrap;html=1;pointerEvents=0;recursiveResize=0;container=1;collapsible=0;width=160;" parent="1" vertex="1">
          <mxGeometry x="40" y="40" width="1320" height="720" as="geometry" />
        </mxCell>
        <mxCell id="F06PIi5OJ8OJ5BxMcxlW-4" value="" style="group" parent="F06PIi5OJ8OJ5BxMcxlW-1" vertex="1" connectable="0">
          <mxGeometry x="40" y="50" width="60" height="550" as="geometry" />
        </mxCell>
        <mxCell id="F06PIi5OJ8OJ5BxMcxlW-2" value="" style="shape=umlLifeline;perimeter=lifelinePerimeter;whiteSpace=wrap;html=1;container=1;dropTarget=0;collapsible=0;recursiveResize=0;outlineConnect=0;portConstraint=eastwest;newEdgeStyle={&quot;curved&quot;:0,&quot;rounded&quot;:0};participant=umlActor;" parent="F06PIi5OJ8OJ5BxMcxlW-4" vertex="1">
          <mxGeometry x="20" y="30" width="20" height="520" as="geometry" />
        </mxCell>
        <mxCell id="F06PIi5OJ8OJ5BxMcxlW-3" value="Usuário" style="text;html=1;align=center;verticalAlign=middle;resizable=0;points=[];autosize=1;strokeColor=none;fillColor=none;" parent="F06PIi5OJ8OJ5BxMcxlW-4" vertex="1">
          <mxGeometry width="60" height="30" as="geometry" />
        </mxCell>
        <mxCell id="F06PIi5OJ8OJ5BxMcxlW-7" value="" style="group" parent="F06PIi5OJ8OJ5BxMcxlW-1" vertex="1" connectable="0">
          <mxGeometry x="230" y="40" width="150" height="560" as="geometry" />
        </mxCell>
        <mxCell id="F06PIi5OJ8OJ5BxMcxlW-5" value="" style="shape=umlLifeline;perimeter=lifelinePerimeter;whiteSpace=wrap;html=1;container=1;dropTarget=0;collapsible=0;recursiveResize=0;outlineConnect=0;portConstraint=eastwest;newEdgeStyle={&quot;curved&quot;:0,&quot;rounded&quot;:0};participant=umlBoundary;" parent="F06PIi5OJ8OJ5BxMcxlW-7" vertex="1">
          <mxGeometry x="50" y="40" width="50" height="520" as="geometry" />
        </mxCell>
        <mxCell id="F06PIi5OJ8OJ5BxMcxlW-6" value=":Interface&lt;div&gt;Página de apresentação&lt;/div&gt;" style="text;html=1;align=center;verticalAlign=middle;resizable=0;points=[];autosize=1;strokeColor=none;fillColor=none;" parent="F06PIi5OJ8OJ5BxMcxlW-7" vertex="1">
          <mxGeometry width="150" height="40" as="geometry" />
        </mxCell>
        <mxCell id="m9mKvb3jiyuw4knPAqn1-3" value="" style="group" vertex="1" connectable="0" parent="F06PIi5OJ8OJ5BxMcxlW-1">
          <mxGeometry x="505" y="40" width="90" height="560" as="geometry" />
        </mxCell>
        <mxCell id="m9mKvb3jiyuw4knPAqn1-1" value="" style="shape=umlLifeline;perimeter=lifelinePerimeter;whiteSpace=wrap;html=1;container=1;dropTarget=0;collapsible=0;recursiveResize=0;outlineConnect=0;portConstraint=eastwest;newEdgeStyle={&quot;curved&quot;:0,&quot;rounded&quot;:0};participant=umlControl;" vertex="1" parent="m9mKvb3jiyuw4knPAqn1-3">
          <mxGeometry x="25" y="40" width="40" height="520" as="geometry" />
        </mxCell>
        <mxCell id="m9mKvb3jiyuw4knPAqn1-2" value=":Controlador&lt;div&gt;Marcas&lt;/div&gt;" style="text;html=1;align=center;verticalAlign=middle;resizable=0;points=[];autosize=1;strokeColor=none;fillColor=none;" vertex="1" parent="m9mKvb3jiyuw4knPAqn1-3">
          <mxGeometry width="90" height="40" as="geometry" />
        </mxCell>
        <mxCell id="m9mKvb3jiyuw4knPAqn1-4" value="" style="shape=umlLifeline;perimeter=lifelinePerimeter;whiteSpace=wrap;html=1;container=1;dropTarget=0;collapsible=0;recursiveResize=0;outlineConnect=0;portConstraint=eastwest;newEdgeStyle={&quot;curved&quot;:0,&quot;rounded&quot;:0};participant=umlEntity;" vertex="1" parent="F06PIi5OJ8OJ5BxMcxlW-1">
          <mxGeometry x="740" y="80" width="40" height="520" as="geometry" />
        </mxCell>
        <mxCell id="m9mKvb3jiyuw4knPAqn1-5" value="Text" style="text;html=1;align=center;verticalAlign=middle;resizable=0;points=[];autosize=1;strokeColor=none;fillColor=none;" vertex="1" parent="1">
          <mxGeometry x="775" y="68" width="50" height="30" as="geometry" />
        </mxCell>
      </root>
    </mxGraphModel>
  </diagram>
</mxfile>
